<?xml version="1.0" encoding="UTF-8"?>
<svg xmlns="http://www.w3.org/2000/svg" xmlns:xlink="http://www.w3.org/1999/xlink" width="20px" height="20px" viewBox="0 0 20 20" version="1.1">
<defs>
<linearGradient id="linear0" gradientUnits="userSpaceOnUse" x1="4" y1="23.507999" x2="44" y2="23.507999" gradientTransform="matrix(0.416667,0,0,0.416667,0,0)">
<stop offset="0" style="stop-color:rgb(29.803922%,29.803922%,29.803922%);stop-opacity:1;"/>
<stop offset="1" style="stop-color:rgb(20.392157%,20.392157%,20.392157%);stop-opacity:1;"/>
</linearGradient>
<filter id="alpha" filterUnits="objectBoundingBox" x="0%" y="0%" width="100%" height="100%">
  <feColorMatrix type="matrix" in="SourceGraphic" values="0 0 0 0 1 0 0 0 0 1 0 0 0 0 1 0 0 0 1 0"/>
</filter>
<mask id="mask0">
  <g filter="url(#alpha)">
<rect x="0" y="0" width="20" height="20" style="fill:rgb(0%,0%,0%);fill-opacity:0.0509804;stroke:none;"/>
  </g>
</mask>
<clipPath id="clip1">
  <rect x="0" y="0" width="20" height="20"/>
</clipPath>
<g id="surface5" clip-path="url(#clip1)">
<path style=" stroke:none;fill-rule:nonzero;fill:rgb(0%,0%,0%);fill-opacity:1;" d="M 12.503906 17.5 L 12.5 15.082031 C 12.5 14.691406 12.410156 14.308594 12.234375 13.964844 C 14.582031 13.492188 15.726562 12.101562 15.726562 9.722656 C 15.726562 8.78125 15.449219 7.953125 14.902344 7.253906 C 14.945312 7.125 14.976562 6.988281 14.996094 6.847656 C 15.074219 6.277344 14.984375 5.902344 14.914062 5.605469 L 14.902344 5.554688 C 14.824219 5.222656 14.734375 4.988281 14.730469 4.976562 L 14.636719 4.742188 L 14.511719 4.730469 L 14.382812 4.714844 C 14.382812 4.714844 14.300781 4.707031 14.175781 4.707031 C 14 4.707031 13.742188 4.722656 13.496094 4.808594 L 13.417969 4.835938 C 13.109375 4.9375 12.816406 5.035156 12.410156 5.28125 C 12.289062 5.351562 12.160156 5.433594 12.019531 5.523438 C 11.390625 5.367188 10.710938 5.289062 10 5.289062 C 9.28125 5.289062 8.597656 5.367188 7.964844 5.527344 C 7.820312 5.433594 7.691406 5.351562 7.570312 5.28125 C 7.164062 5.035156 6.871094 4.9375 6.5625 4.835938 L 6.480469 4.808594 C 6.238281 4.722656 5.980469 4.707031 5.804688 4.707031 C 5.679688 4.707031 5.59375 4.714844 5.59375 4.714844 L 5.46875 4.730469 L 5.34375 4.742188 L 5.25 4.976562 C 5.246094 4.988281 5.152344 5.222656 5.078125 5.554688 L 5.066406 5.605469 C 4.996094 5.902344 4.90625 6.277344 4.984375 6.847656 C 5.003906 6.992188 5.035156 7.132812 5.082031 7.269531 C 4.546875 7.960938 4.273438 8.789062 4.273438 9.722656 C 4.273438 12.09375 5.417969 13.484375 7.773438 13.960938 C 7.691406 14.121094 7.628906 14.292969 7.585938 14.46875 C 7.503906 14.496094 7.425781 14.515625 7.359375 14.527344 C 7.261719 14.542969 7.15625 14.550781 7.050781 14.550781 C 6.765625 14.550781 6.542969 14.492188 6.453125 14.441406 C 6.324219 14.363281 6.089844 14.140625 5.863281 13.808594 C 5.671875 13.527344 5.371094 13.160156 5.035156 13.007812 C 4.746094 12.875 4.4375 12.796875 4.191406 12.796875 C 4.132812 12.796875 4.078125 12.800781 4.03125 12.808594 C 3.816406 12.84375 3.636719 12.960938 3.539062 13.132812 C 3.453125 13.28125 3.441406 13.457031 3.503906 13.609375 C 3.59375 13.835938 3.859375 14.019531 4.0625 14.132812 C 4.164062 14.1875 4.382812 14.390625 4.507812 14.59375 C 4.605469 14.746094 4.648438 14.855469 4.710938 15.007812 C 4.746094 15.097656 4.785156 15.195312 4.839844 15.3125 C 5.035156 15.738281 5.648438 16.113281 5.714844 16.15625 C 6.050781 16.355469 6.617188 16.421875 7.03125 16.441406 L 7.082031 16.441406 C 7.183594 16.441406 7.320312 16.433594 7.5 16.410156 L 7.5 17.5 C 7.503906 17.722656 7.277344 17.769531 6.980469 17.765625 L 7.207031 17.84375 C 8.082031 18.15625 9.019531 18.332031 10 18.332031 C 10.980469 18.332031 11.917969 18.15625 12.792969 17.84375 L 13.085938 17.734375 C 12.789062 17.722656 12.507812 17.675781 12.503906 17.5 Z M 12.503906 17.5 "/>
</g>
<mask id="mask1">
  <g filter="url(#alpha)">
<rect x="0" y="0" width="20" height="20" style="fill:rgb(0%,0%,0%);fill-opacity:0.0705882;stroke:none;"/>
  </g>
</mask>
<clipPath id="clip2">
  <rect x="0" y="0" width="20" height="20"/>
</clipPath>
<g id="surface8" clip-path="url(#clip2)">
<path style=" stroke:none;fill-rule:nonzero;fill:rgb(0%,0%,0%);fill-opacity:1;" d="M 12.824219 17.832031 C 12.65625 17.851562 12.292969 17.785156 12.292969 17.5 L 12.292969 15.082031 C 12.292969 14.625 12.15625 14.1875 11.902344 13.8125 C 14.367188 13.410156 15.519531 12.105469 15.519531 9.722656 C 15.519531 8.789062 15.230469 7.976562 14.667969 7.296875 C 14.726562 7.144531 14.765625 6.984375 14.789062 6.820312 C 14.859375 6.285156 14.78125 5.949219 14.710938 5.652344 L 14.699219 5.601562 C 14.625 5.285156 14.539062 5.0625 14.535156 5.054688 L 14.488281 4.9375 L 14.363281 4.921875 C 14.363281 4.921875 14.289062 4.914062 14.175781 4.914062 C 14.015625 4.914062 13.78125 4.929688 13.566406 5.003906 L 13.484375 5.03125 C 13.183594 5.132812 12.902344 5.226562 12.515625 5.457031 C 12.378906 5.542969 12.222656 5.636719 12.058594 5.746094 C 11.417969 5.582031 10.726562 5.496094 10 5.496094 C 9.265625 5.496094 8.570312 5.582031 7.925781 5.75 C 7.757812 5.640625 7.601562 5.542969 7.464844 5.457031 C 7.074219 5.226562 6.792969 5.132812 6.496094 5.03125 L 6.414062 5.003906 C 6.199219 4.929688 5.960938 4.914062 5.804688 4.914062 C 5.691406 4.914062 5.617188 4.921875 5.617188 4.921875 L 5.492188 4.9375 L 5.445312 5.054688 C 5.441406 5.0625 5.351562 5.285156 5.277344 5.605469 L 5.265625 5.652344 C 5.195312 5.949219 5.117188 6.285156 5.191406 6.820312 C 5.214844 6.988281 5.253906 7.152344 5.316406 7.308594 C 4.761719 7.984375 4.480469 8.792969 4.480469 9.722656 C 4.480469 12.097656 5.632812 13.40625 8.101562 13.808594 C 7.9375 14.054688 7.820312 14.332031 7.761719 14.625 C 7.625 14.679688 7.5 14.714844 7.390625 14.734375 C 7.28125 14.75 7.167969 14.757812 7.050781 14.757812 C 6.765625 14.757812 6.488281 14.703125 6.347656 14.621094 C 6.164062 14.511719 5.90625 14.242188 5.691406 13.925781 C 5.546875 13.714844 5.257812 13.335938 4.949219 13.195312 C 4.683594 13.074219 4.40625 13.003906 4.1875 13.003906 C 4.144531 13.003906 4.101562 13.007812 4.066406 13.015625 C 3.910156 13.039062 3.785156 13.121094 3.71875 13.238281 C 3.667969 13.332031 3.65625 13.4375 3.695312 13.53125 C 3.769531 13.71875 4.046875 13.886719 4.160156 13.949219 C 4.300781 14.027344 4.542969 14.261719 4.683594 14.484375 C 4.789062 14.652344 4.839844 14.777344 4.902344 14.929688 C 4.9375 15.015625 4.976562 15.113281 5.027344 15.226562 C 5.164062 15.527344 5.589844 15.839844 5.820312 15.976562 C 6.136719 16.164062 6.71875 16.21875 7.039062 16.234375 L 7.085938 16.234375 C 7.210938 16.234375 7.417969 16.214844 7.707031 16.175781 L 7.707031 17.5 C 7.707031 17.824219 7.296875 17.839844 7.195312 17.839844 C 7.179688 17.839844 7.402344 17.914062 7.402344 17.914062 C 8.222656 18.183594 9.09375 18.332031 10 18.332031 C 10.90625 18.332031 11.777344 18.183594 12.597656 17.914062 C 12.597656 17.914062 12.839844 17.832031 12.824219 17.832031 Z M 12.824219 17.832031 "/>
</g>
</defs>
<g id="surface1">
<path style=" stroke:none;fill-rule:nonzero;fill:url(#linear0);" d="M 10 1.667969 C 5.398438 1.667969 1.667969 5.398438 1.667969 10 C 1.667969 13.703125 4.082031 16.839844 7.425781 17.921875 L 12.574219 17.921875 C 15.917969 16.839844 18.332031 13.703125 18.332031 10 C 18.332031 5.398438 14.601562 1.667969 10 1.667969 Z M 10 1.667969 "/>
<use xlink:href="#surface5" mask="url(#mask0)"/>
<use xlink:href="#surface8" mask="url(#mask1)"/>
<path style=" stroke:none;fill-rule:nonzero;fill:rgb(100%,100%,100%);fill-opacity:1;" d="M 15.308594 9.722656 C 15.308594 8.761719 14.984375 7.960938 14.429688 7.335938 C 14.488281 7.199219 14.550781 7.019531 14.582031 6.789062 C 14.652344 6.269531 14.570312 5.957031 14.496094 5.652344 C 14.425781 5.34375 14.339844 5.128906 14.339844 5.128906 C 14.339844 5.128906 13.957031 5.089844 13.632812 5.203125 C 13.308594 5.3125 13.027344 5.398438 12.621094 5.636719 C 12.433594 5.75 12.246094 5.875 12.09375 5.972656 C 11.449219 5.796875 10.742188 5.703125 10 5.703125 C 9.25 5.703125 8.535156 5.796875 7.890625 5.976562 C 7.738281 5.875 7.546875 5.75 7.355469 5.636719 C 6.953125 5.398438 6.671875 5.3125 6.347656 5.203125 C 6.023438 5.089844 5.636719 5.128906 5.636719 5.128906 C 5.636719 5.128906 5.554688 5.34375 5.480469 5.652344 C 5.410156 5.957031 5.324219 6.269531 5.398438 6.789062 C 5.429688 7.023438 5.496094 7.210938 5.554688 7.34375 C 5.011719 7.96875 4.691406 8.761719 4.691406 9.722656 C 4.691406 12.214844 6.035156 13.351562 8.492188 13.652344 C 8.203125 13.957031 8.011719 14.34375 7.949219 14.773438 C 7.785156 14.84375 7.601562 14.910156 7.421875 14.9375 C 6.960938 15.007812 6.476562 14.9375 6.242188 14.800781 C 6.007812 14.660156 5.730469 14.347656 5.519531 14.042969 C 5.34375 13.789062 5.089844 13.488281 4.863281 13.386719 C 4.558594 13.246094 4.261719 13.195312 4.097656 13.21875 C 3.933594 13.246094 3.855469 13.367188 3.890625 13.453125 C 3.925781 13.542969 4.089844 13.671875 4.261719 13.765625 C 4.4375 13.863281 4.707031 14.121094 4.863281 14.375 C 5.035156 14.65625 5.070312 14.816406 5.21875 15.136719 C 5.320312 15.363281 5.675781 15.644531 5.929688 15.796875 C 6.148438 15.929688 6.582031 16.003906 7.050781 16.023438 C 7.210938 16.03125 7.59375 15.984375 7.917969 15.9375 L 7.917969 17.5 C 7.917969 17.765625 7.671875 17.96875 7.421875 17.921875 C 8.230469 18.195312 9.097656 18.332031 10 18.332031 C 10.902344 18.332031 11.769531 18.195312 12.578125 17.921875 C 12.328125 17.96875 12.082031 17.765625 12.082031 17.5 L 12.082031 15.082031 C 12.082031 14.527344 11.863281 14.027344 11.511719 13.65625 C 13.945312 13.363281 15.308594 12.253906 15.308594 9.722656 Z M 4.683594 13.636719 C 4.617188 13.601562 4.585938 13.542969 4.605469 13.5 C 4.628906 13.457031 4.699219 13.449219 4.761719 13.480469 C 4.824219 13.515625 4.859375 13.574219 4.839844 13.617188 C 4.816406 13.660156 4.746094 13.667969 4.683594 13.636719 Z M 5.1875 13.949219 C 5.152344 13.988281 5.082031 13.976562 5.027344 13.925781 C 4.96875 13.875 4.953125 13.804688 4.984375 13.765625 C 5.019531 13.730469 5.09375 13.742188 5.148438 13.792969 C 5.203125 13.84375 5.222656 13.914062 5.1875 13.949219 Z M 5.503906 14.472656 C 5.460938 14.5 5.386719 14.472656 5.339844 14.410156 C 5.296875 14.34375 5.292969 14.265625 5.335938 14.238281 C 5.378906 14.207031 5.449219 14.234375 5.496094 14.300781 C 5.542969 14.363281 5.542969 14.441406 5.503906 14.472656 Z M 5.953125 14.863281 C 5.925781 14.910156 5.84375 14.914062 5.769531 14.867188 C 5.699219 14.824219 5.664062 14.75 5.691406 14.703125 C 5.722656 14.660156 5.804688 14.65625 5.875 14.699219 C 5.945312 14.742188 5.980469 14.816406 5.953125 14.863281 Z M 6.378906 15.246094 C 6.292969 15.238281 6.226562 15.179688 6.234375 15.125 C 6.238281 15.066406 6.316406 15.027344 6.40625 15.039062 C 6.496094 15.050781 6.5625 15.105469 6.554688 15.164062 C 6.546875 15.21875 6.46875 15.257812 6.378906 15.246094 Z M 7.066406 15.347656 C 6.972656 15.339844 6.898438 15.289062 6.902344 15.226562 C 6.90625 15.164062 6.988281 15.121094 7.082031 15.125 C 7.175781 15.132812 7.25 15.183594 7.246094 15.246094 C 7.242188 15.308594 7.164062 15.351562 7.066406 15.347656 Z M 7.71875 15.28125 C 7.617188 15.28125 7.535156 15.230469 7.535156 15.164062 C 7.535156 15.101562 7.617188 15.046875 7.71875 15.046875 C 7.816406 15.046875 7.898438 15.101562 7.898438 15.164062 C 7.898438 15.230469 7.816406 15.28125 7.71875 15.28125 Z M 7.71875 15.28125 "/>
</g>
</svg>
