<?xml version="1.0" encoding="UTF-8"?>
<svg xmlns="http://www.w3.org/2000/svg" xmlns:xlink="http://www.w3.org/1999/xlink" width="20px" height="20px" viewBox="0 0 20 20" version="1.1">
<g id="surface1">
<path style=" stroke:none;fill-rule:nonzero;fill:rgb(100%,75.686276%,2.745098%);fill-opacity:1;" d="M 18.171875 8.367188 L 17.5 8.367188 L 17.5 8.332031 L 10 8.332031 L 10 11.667969 L 14.710938 11.667969 C 14.023438 13.605469 12.175781 15 10 15 C 7.238281 15 5 12.761719 5 10 C 5 7.238281 7.238281 5 10 5 C 11.273438 5 12.433594 5.480469 13.316406 6.265625 L 15.675781 3.910156 C 14.1875 2.523438 12.195312 1.667969 10 1.667969 C 5.398438 1.667969 1.667969 5.398438 1.667969 10 C 1.667969 14.601562 5.398438 18.332031 10 18.332031 C 14.601562 18.332031 18.332031 14.601562 18.332031 10 C 18.332031 9.441406 18.277344 8.894531 18.171875 8.367188 Z M 18.171875 8.367188 "/>
<path style=" stroke:none;fill-rule:nonzero;fill:rgb(100%,23.921569%,0%);fill-opacity:1;" d="M 2.628906 6.121094 L 5.367188 8.128906 C 6.105469 6.296875 7.902344 5 10 5 C 11.273438 5 12.433594 5.480469 13.316406 6.265625 L 15.675781 3.910156 C 14.1875 2.523438 12.195312 1.667969 10 1.667969 C 6.800781 1.667969 4.023438 3.472656 2.628906 6.121094 Z M 2.628906 6.121094 "/>
<path style=" stroke:none;fill-rule:nonzero;fill:rgb(29.803923%,68.627453%,31.37255%);fill-opacity:1;" d="M 10 18.332031 C 12.152344 18.332031 14.109375 17.507812 15.585938 16.171875 L 13.007812 13.988281 C 12.171875 14.621094 11.132812 15 10 15 C 7.832031 15 5.992188 13.617188 5.296875 11.6875 L 2.582031 13.78125 C 3.960938 16.480469 6.761719 18.332031 10 18.332031 Z M 10 18.332031 "/>
<path style=" stroke:none;fill-rule:nonzero;fill:rgb(9.803922%,46.27451%,82.352942%);fill-opacity:1;" d="M 18.171875 8.367188 L 17.5 8.367188 L 17.5 8.332031 L 10 8.332031 L 10 11.667969 L 14.710938 11.667969 C 14.378906 12.597656 13.78125 13.402344 13.007812 13.988281 L 15.585938 16.167969 C 15.40625 16.335938 18.332031 14.167969 18.332031 10 C 18.332031 9.441406 18.277344 8.894531 18.171875 8.367188 Z M 18.171875 8.367188 "/>
</g>
</svg>
